<?xml version="1.0" encoding="iso-8859-1"?>
<!-- Generator: Adobe Illustrator 18.0.0, SVG Export Plug-In . SVG Version: 6.00 Build 0)  -->
<!DOCTYPE svg PUBLIC "-//W3C//DTD SVG 1.1//EN" "http://www.w3.org/Graphics/SVG/1.1/DTD/svg11.dtd">
<svg version="1.1" id="Capa_1" xmlns="http://www.w3.org/2000/svg" xmlns:xlink="http://www.w3.org/1999/xlink" x="0px" y="0px"
	 viewBox="0 0 297.5 297.5" style="enable-background:new 0 0 297.5 297.5;" xml:space="preserve">
<g id="XMLID_6_">
	<g>
		<path style="fill:#EF717A;" d="M37.7,194.8l-7.6,6.59c-2.94,1.85-6.86,1.09-8.89-1.77c-1.02-1.44-1.42-3.19-1.12-4.93
			c0.29-1.74,1.25-3.25,2.68-4.27l4.69-3.32C30.6,189.99,34.03,192.57,37.7,194.8z"/>
		<path style="fill:#EF717A;" d="M277.42,194.69c0.3,1.74-0.1,3.49-1.12,4.93c-2.04,2.86-5.95,3.62-8.89,1.77l-7.76-6.72
			c3.66-2.24,7.06-4.83,10.19-7.72l4.89,3.47C276.17,191.44,277.12,192.95,277.42,194.69z"/>
		<path style="fill:#EF717A;" d="M134.98,133.13h27.19c-0.23,2.17-0.34,4.37-0.34,6.6c0,2.23,0.11,4.43,0.34,6.6h-27.19
			c0.22-2.17,0.33-4.37,0.33-6.6C135.31,137.5,135.2,135.3,134.98,133.13z"/>
		<path style="fill:#BDC3C7;" d="M70.96,95.11c24.6,0,44.62,20.02,44.62,44.62s-20.02,44.62-44.62,44.62s-44.62-20.02-44.62-44.62
			S46.36,95.11,70.96,95.11z"/>
		<path style="fill:#BDC3C7;" d="M226.18,95.11c24.6,0,44.62,20.02,44.62,44.62s-20.02,44.62-44.62,44.62s-44.62-20.02-44.62-44.62
			S201.58,95.11,226.18,95.11z"/>
		<path d="M296.87,191.38c0.25,1.49,0.38,2.99,0.38,4.47c0,5.41-1.67,10.68-4.86,15.18c-5.12,7.23-13.26,11.09-21.51,11.09
			c-5.27,0-10.58-1.57-15.2-4.84c-0.26-0.19-0.51-0.38-0.75-0.59l-16.01-13.88c-4.12,0.83-8.38,1.27-12.74,1.27
			c-26.1,0-48.61-15.63-58.69-38.02h-37.84c-10.08,22.39-32.59,38.02-58.69,38.02c-4.25,0-8.41-0.43-12.43-1.22l-15.95,13.83
			c-0.24,0.21-0.5,0.4-0.76,0.59c-4.61,3.27-9.93,4.84-15.19,4.84c-4.13,0-8.23-0.97-11.93-2.83c-3.71-1.87-7.02-4.64-9.59-8.26
			c-4.07-5.74-5.66-12.72-4.48-19.65c1.18-6.93,4.99-12.99,10.73-17.06l3.76-2.67c-5.4-9.41-8.51-20.31-8.51-31.92
			c0-14.91,5.11-28.64,13.66-39.56c-5.12-0.37-9.17-4.62-9.17-9.84c0-5.44,4.42-9.86,9.87-9.86h24.92
			c7.71-3.28,16.18-5.09,25.07-5.09c26.1,0,48.61,15.63,58.69,38.02h37.84c10.08-22.39,32.59-38.02,58.69-38.02
			c8.89,0,17.37,1.81,25.08,5.09h24.91c5.45,0,9.87,4.42,9.87,9.86c0,5.22-4.04,9.47-9.16,9.84c8.54,10.92,13.65,24.65,13.65,39.56
			c0,11.54-3.07,22.36-8.41,31.74l4.03,2.85C291.88,178.39,295.69,184.45,296.87,191.38z M276.3,199.62
			c1.02-1.44,1.42-3.19,1.12-4.93c-0.3-1.74-1.25-3.25-2.69-4.27l-4.89-3.47c-3.13,2.89-6.53,5.48-10.19,7.72l7.76,6.72
			C270.35,203.24,274.26,202.48,276.3,199.62z M270.8,139.73c0-24.6-20.02-44.62-44.62-44.62s-44.62,20.02-44.62,44.62
			s20.02,44.62,44.62,44.62S270.8,164.33,270.8,139.73z M162.17,133.13h-27.19c0.22,2.17,0.33,4.37,0.33,6.6
			c0,2.23-0.11,4.43-0.33,6.6h27.19c-0.23-2.17-0.34-4.37-0.34-6.6C161.83,137.5,161.94,135.3,162.17,133.13z M115.58,139.73
			c0-24.6-20.02-44.62-44.62-44.62s-44.62,20.02-44.62,44.62s20.02,44.62,44.62,44.62S115.58,164.33,115.58,139.73z M30.1,201.39
			l7.6-6.59c-3.67-2.23-7.1-4.81-10.24-7.7l-4.69,3.32c-1.43,1.02-2.39,2.53-2.68,4.27c-0.3,1.74,0.1,3.49,1.12,4.93
			C23.24,202.48,27.16,203.24,30.1,201.39z"/>
	</g>
	<g>
	</g>
</g>
<g>
</g>
<g>
</g>
<g>
</g>
<g>
</g>
<g>
</g>
<g>
</g>
<g>
</g>
<g>
</g>
<g>
</g>
<g>
</g>
<g>
</g>
<g>
</g>
<g>
</g>
<g>
</g>
<g>
</g>
</svg>
